<svg xmlns="http://www.w3.org/2000/svg" xmlns:v="http://vecta.io" xmlns:xlink="http://www.w3.org/1999/xlink" viewBox="0 0 52 82" stroke="#000" stroke-linecap="round" stroke-linejoin="round" fill="#fff" fill-rule="evenodd" font-family="Roboto" font-size="14px" text-anchor="middle" width="300" height="300"><defs><style type="text/css"></style></defs><use xlink:href="#ZriLwcfEJwOW6oRqIFoUrv.sym" x="0.5" y="0.5"></use><symbol id="ZriLwcfEJwOW6oRqIFoUrv.sym" v:tags="azure, cloud, application, insight"><title>Application Insights</title><desc></desc><g id="j4r1z6ks1gb" class="Group.cls" transform="translate(0 0)" v:size="52,82,0.5,0.5"><g id="j4r1z6ib1g1" transform="translate(0.000006737496732966974 0.000007663820099423901)"><path d="M 49.9582 23.4199 L 49.9582 23.4199 L 49.9582 22.9391 C 49.9582 10.5972 39.825 0.3391 27.3886 0.1788 C 27.0814 -0.302 20.0188 0.3391 20.0188 0.3391 L 20.0188 0.3391 C 8.8107 1.7817 0.059 11.5589 0.059 22.9391 C 0.059 23.2597 -1.1693 32.2355 7.5823 39.7689 C 11.5743 43.4554 15.7198 53.393 16.334 56.2781 L 16.7945 57.2397 L 33.0694 57.2397 L 33.53 56.2781 C 34.1441 53.393 38.4431 43.4554 42.2815 39.9291 C 51.0331 32.2355 49.9582 23.7405 49.9582 23.4199 Z" fill="#68217a" stroke="none"></path></g><g id="j4r1z6is1g2" transform="translate(17.1015 63.01000383191005)"><path d="M 0 0 L 16.2748 0 L 16.2748 5.4496 L 0 5.4496 Z" fill="#7a7a7a" stroke="none"></path></g><g id="j4r1z6ja1g3" transform="translate(17.1015 74.39010383191005)"><path d="M 5.0666 5.6099 L 11.0546 5.6099 L 16.1213 0 L 0 0 Z" fill="#7a7a7a" stroke="none"></path></g><g id="j4r1z6jz1g4" transform="translate(12.1885 24.22140383191005)"><path d="M 17.0424 32.2169 L 13.9717 32.2169 L 13.9717 11.8609 L 11.3617 11.8609 L 11.3617 32.0567 L 8.2909 32.0567 L 8.2909 11.8609 L 5.6807 11.8609 C 2.61 11.8609 0 9.1362 0 5.9304 C 0 2.7248 2.4564 0 5.6807 0 C 8.9051 0 11.3617 2.7248 11.3617 5.9304 L 11.3617 8.6553 L 13.9717 8.6553 L 13.9717 5.9304 C 13.9717 2.7248 16.5819 0 19.6526 0 C 22.7233 0 25.3334 2.7248 25.3334 5.9304 C 25.3334 9.1362 22.7233 11.8609 19.6526 11.8609 L 17.0424 11.8609 L 17.0424 32.2169 Z M 5.6807 3.2057 C 4.299 3.2057 3.0707 4.3276 3.0707 5.9304 C 3.0707 7.373 4.299 8.6553 5.6807 8.6553 L 8.2909 8.6553 L 8.2909 5.9304 C 8.1374 4.4879 7.0625 3.2057 5.6807 3.2057 Z M 19.6526 3.2057 C 18.2707 3.2057 17.0424 4.4879 17.0424 5.9304 L 17.0424 8.6553 L 19.6526 8.6553 C 21.0344 8.6553 22.2626 7.373 22.2626 5.9304 C 22.2626 4.4879 21.1879 3.2057 19.6526 3.2057 Z" fill="#ffffff" fill-opacity="0.65" stroke="none"></path></g><g id="j4r1z6k81g5" transform="translate(0.0005 0.000003831910049711951)"><path d="M 27.3881 0.1788 C 27.0808 -0.302 20.0182 0.3391 20.0182 0.3391 C 8.8102 1.7817 0.0585 11.5589 0.0585 22.9391 C 0.0585 23.2597 -1.0162 31.1135 6.0465 38.3263 L 39.2103 3.7051 C 35.679 1.4611 31.687 0.1788 27.3881 0.1788 Z" fill="#ffffff" fill-opacity="0.15" stroke="none"></path></g></g></symbol></svg>